<mxfile host="app.diagrams.net" modified="2023-11-20T13:58:11.712Z" agent="Mozilla/5.0 (Windows NT 10.0; Win64; x64) AppleWebKit/537.36 (KHTML, like Gecko) Chrome/119.0.0.0 Safari/537.36 Edg/119.0.0.0" etag="VP-4iEnW7KYvwmm7joWg" version="22.1.3" type="github">
  <diagram name="第 1 页" id="lQTLDWcY_eZ0sKBOPx8D">
    <mxGraphModel dx="1386" dy="793" grid="1" gridSize="10" guides="1" tooltips="1" connect="1" arrows="1" fold="1" page="1" pageScale="1" pageWidth="827" pageHeight="1169" math="0" shadow="0">
      <root>
        <mxCell id="0" />
        <mxCell id="1" parent="0" />
        <mxCell id="Llqqbq-_5VIP15spKIbY-10" style="edgeStyle=orthogonalEdgeStyle;rounded=0;orthogonalLoop=1;jettySize=auto;html=1;exitX=1;exitY=0.5;exitDx=0;exitDy=0;entryX=0;entryY=0.5;entryDx=0;entryDy=0;strokeWidth=3;" edge="1" parent="1" source="Llqqbq-_5VIP15spKIbY-1" target="Llqqbq-_5VIP15spKIbY-2">
          <mxGeometry relative="1" as="geometry" />
        </mxCell>
        <mxCell id="Llqqbq-_5VIP15spKIbY-1" value="&lt;b&gt;&lt;font style=&quot;font-size: 16px;&quot;&gt;1.Threoy&lt;/font&gt;&lt;/b&gt;" style="rounded=1;whiteSpace=wrap;html=1;strokeWidth=4;fillColor=#fff2cc;strokeColor=#000000;" vertex="1" parent="1">
          <mxGeometry x="100" y="290" width="120" height="60" as="geometry" />
        </mxCell>
        <mxCell id="Llqqbq-_5VIP15spKIbY-8" style="edgeStyle=orthogonalEdgeStyle;rounded=0;orthogonalLoop=1;jettySize=auto;html=1;exitX=0.5;exitY=1;exitDx=0;exitDy=0;entryX=0.5;entryY=0;entryDx=0;entryDy=0;strokeWidth=3;" edge="1" parent="1" source="Llqqbq-_5VIP15spKIbY-2" target="Llqqbq-_5VIP15spKIbY-6">
          <mxGeometry relative="1" as="geometry" />
        </mxCell>
        <mxCell id="Llqqbq-_5VIP15spKIbY-9" style="edgeStyle=orthogonalEdgeStyle;rounded=0;orthogonalLoop=1;jettySize=auto;html=1;exitX=0.5;exitY=1;exitDx=0;exitDy=0;entryX=0.5;entryY=0;entryDx=0;entryDy=0;strokeWidth=3;" edge="1" parent="1" source="Llqqbq-_5VIP15spKIbY-2" target="Llqqbq-_5VIP15spKIbY-5">
          <mxGeometry relative="1" as="geometry" />
        </mxCell>
        <mxCell id="Llqqbq-_5VIP15spKIbY-11" style="edgeStyle=orthogonalEdgeStyle;rounded=0;orthogonalLoop=1;jettySize=auto;html=1;exitX=1;exitY=0.5;exitDx=0;exitDy=0;entryX=0;entryY=0.5;entryDx=0;entryDy=0;strokeWidth=3;" edge="1" parent="1" source="Llqqbq-_5VIP15spKIbY-2" target="Llqqbq-_5VIP15spKIbY-4">
          <mxGeometry relative="1" as="geometry" />
        </mxCell>
        <mxCell id="Llqqbq-_5VIP15spKIbY-2" value="&lt;b&gt;&lt;font style=&quot;font-size: 16px;&quot;&gt;2.Scheme&lt;/font&gt;&lt;/b&gt;" style="rounded=1;whiteSpace=wrap;html=1;strokeWidth=4;fillColor=#FFF29E;strokeColor=#000000;" vertex="1" parent="1">
          <mxGeometry x="310" y="290" width="120" height="60" as="geometry" />
        </mxCell>
        <mxCell id="Llqqbq-_5VIP15spKIbY-4" value="&lt;b&gt;&lt;font style=&quot;font-size: 16px;&quot;&gt;3.Application&lt;/font&gt;&lt;/b&gt;" style="rounded=1;whiteSpace=wrap;html=1;strokeWidth=4;fillColor=#FFFA78;" vertex="1" parent="1">
          <mxGeometry x="520" y="290" width="120" height="60" as="geometry" />
        </mxCell>
        <mxCell id="Llqqbq-_5VIP15spKIbY-5" value="&lt;span style=&quot;font-size: 16px;&quot;&gt;&lt;b&gt;2.2 Zero-Shot&lt;br&gt;Depth&lt;br&gt;Compeletion&amp;nbsp;&lt;/b&gt;&lt;/span&gt;" style="rounded=1;whiteSpace=wrap;html=1;strokeWidth=4;fillColor=#FFF29E;" vertex="1" parent="1">
          <mxGeometry x="405" y="410" width="120" height="110" as="geometry" />
        </mxCell>
        <mxCell id="Llqqbq-_5VIP15spKIbY-6" value="&lt;span style=&quot;font-size: 16px;&quot;&gt;&lt;b&gt;2.1 Depth&lt;br&gt;Adversarial&lt;br&gt;Security&lt;br&gt;&lt;/b&gt;&lt;/span&gt;" style="rounded=1;whiteSpace=wrap;html=1;strokeWidth=4;fillColor=#FFF29E;" vertex="1" parent="1">
          <mxGeometry x="215" y="410" width="120" height="110" as="geometry" />
        </mxCell>
      </root>
    </mxGraphModel>
  </diagram>
</mxfile>
